<svg width="36" height="39" viewBox="0 0 36 39" fill="none" xmlns="http://www.w3.org/2000/svg">
<path d="M19.8233 29.7239C22.7216 29.7239 25.3615 28.768 27.3623 27.0432L28.7589 25.8494L35.0486 31.7834L33.5513 33.1249C29.9526 36.3319 25.0638 38.1029 19.8204 38.1029C8.53815 38.1029 0 29.8714 0 18.9992C0 8.08061 8.33836 0.133545 19.8204 0.133545C24.9675 0.133545 29.8052 1.90439 33.4492 5.06074L35.0005 6.40216L28.807 12.3406L27.4119 11.1908C25.3615 9.46611 22.6705 8.55646 19.8233 8.55646C13.2849 8.55646 8.7426 12.867 8.7426 19.0455C8.7426 25.2239 13.4342 29.7239 19.8233 29.7239Z" fill="#65A9FF"/>
<path d="M19.3185 12.8136C21.0799 12.8136 22.7683 13.4847 24.0146 14.6793C25.2594 15.8739 25.9599 17.4941 25.9599 19.1836C25.9599 20.873 25.2594 22.4932 24.0146 23.688C22.7683 24.8825 21.0799 25.5537 19.3185 25.5537C17.5571 25.5537 15.8671 24.8825 14.6222 23.688C13.3766 22.4932 12.6769 20.873 12.6769 19.1836C12.6769 17.4941 13.3766 15.8739 14.6222 14.6793C15.8671 13.4847 17.5571 12.8136 19.3185 12.8136Z" fill="#65A9FF"/>
</svg>
