<svg width="38" height="38" viewBox="0 0 38 38" fill="none" xmlns="http://www.w3.org/2000/svg">
<path d="M18.6802 36.4683C28.4263 36.4683 36.3271 28.5674 36.3271 18.8213C36.3271 9.07513 28.4263 1.17432 18.6802 1.17432M18.6802 36.4683C8.93402 36.4683 1.0332 28.5674 1.0332 18.8213C1.0332 9.07513 8.93402 1.17432 18.6802 1.17432M18.6802 36.4683C13.7098 31.3505 10.8371 25.3019 10.8371 18.8213C10.8371 12.3407 13.7098 6.29204 18.6802 1.17432M18.6802 36.4683C23.6505 31.3505 26.5233 25.3019 26.5233 18.8213C26.5233 12.3407 23.6505 6.29204 18.6802 1.17432M34.3664 12.939H2.99398M34.3664 24.7036H2.99398" stroke="#65A9FF" stroke-width="1.7758" stroke-linecap="round" stroke-linejoin="round"/>
</svg>
