<svg width="23" height="31" viewBox="0 0 23 31" fill="none" xmlns="http://www.w3.org/2000/svg">
<path d="M5.91548 1.26289C5.66849 1.21349 5.41215 1.27132 5.21029 1.42197C4.20637 2.17121 3.80857 2.62779 3.37266 3.12811C3.21676 3.30704 3.05598 3.49157 2.86086 3.69709C2.73637 3.82822 2.65487 3.99423 2.62728 4.17293L2.36888 5.84626C1.69334 6.4618 1.34974 7.32009 1.17862 7.97799C1.07588 8.37301 1.02203 8.74597 1.00304 9.04301C0.993644 9.18997 0.991768 9.33379 1.00075 9.4616C1.00514 9.52402 1.01333 9.60109 1.03061 9.68136L1.03124 9.68426C1.04144 9.73191 1.08159 9.91938 1.22046 10.0958L1.91725 9.54714L1.22046 10.0958C1.54902 10.5131 1.85869 10.9602 2.18677 11.4339L2.21043 11.4681C2.54133 11.9459 2.89172 12.4504 3.27214 12.9254C3.91277 13.7253 4.68017 14.4962 5.69965 14.9991C5.68243 15.6253 5.66427 16.2525 5.64608 16.8804C5.5414 20.4945 5.43598 24.1339 5.50705 27.7722C5.51306 28.0799 5.67794 28.3625 5.94281 28.5191L8.10001 29.7949C8.37626 29.9582 8.71915 29.9598 8.99689 29.799L9.87831 29.2886C10.1199 29.1488 10.2816 28.9034 10.315 28.6262C10.3483 28.3491 10.2493 28.0724 10.0478 27.8792L9.27964 27.1431L9.83782 24.1002C9.95171 24.0386 10.0696 23.9771 10.1934 23.9125L10.1977 23.9103C10.4383 23.7848 10.7063 23.645 10.9635 23.4866C11.4931 23.1601 12.0384 22.7183 12.4048 21.9998C12.4408 21.9292 12.4667 21.8551 12.4826 21.7794C12.6862 21.75 12.8775 21.6503 13.0196 21.4905C13.1114 21.3872 13.2148 21.2732 13.3256 21.1511C13.7022 20.736 14.1646 20.2263 14.551 19.7195C14.8052 19.3861 15.0507 19.0238 15.2347 18.6539C15.3298 18.4627 15.4177 18.2512 15.4787 18.0265L17.7236 17.0395C17.9064 16.9591 18.0568 16.8194 18.1504 16.6431C18.5139 15.9584 18.9302 15.274 19.3611 14.5653C19.638 14.11 19.921 13.6447 20.1999 13.1629C20.8689 12.0076 21.5136 10.7571 21.6778 9.62776C21.737 9.22035 21.5084 8.82567 21.1256 8.67431L15.428 6.4218L14.2374 4.36913C14.1635 4.24164 14.059 4.13457 13.9333 4.05756C11.6471 2.65653 8.83871 1.84754 5.91548 1.26289Z" stroke="#65A9FF" stroke-width="1.7758" stroke-linejoin="round"/>
</svg>
